HIERARCHY
ROOT Hips
{
	OFFSET -0.001795 -0.223333 0.028219
	CHANNELS 6 Xposition Yposition Zposition Zrotation Yrotation Xrotation 
	JOINT LeftUpLeg
	{
		OFFSET 0.069520 -0.091406 -0.006815
		CHANNELS 3 Zrotation Yrotation Xrotation
		JOINT LeftLeg
		{
			OFFSET 0.034277 -0.375199 -0.004496
			CHANNELS 3 Zrotation Yrotation Xrotation
			JOINT LeftFoot
			{
				OFFSET -0.013596 -0.397961 -0.043693
				CHANNELS 3 Zrotation Yrotation Xrotation
				JOINT LeftToe
				{
					OFFSET 0.026358 -0.055791 0.119288
					CHANNELS 3 Zrotation Yrotation Xrotation
					End Site
					{
						OFFSET 0.000000 0.000000 0.000000
					}
				}
			}
		}
	}
	JOINT RightUpLeg
	{
		OFFSET -0.067670 -0.090522 -0.004320
		CHANNELS 3 Zrotation Yrotation Xrotation
		JOINT RightLeg
		{
			OFFSET -0.038290 -0.382569 -0.008850
			CHANNELS 3 Zrotation Yrotation Xrotation
			JOINT RightFoot
			{
				OFFSET 0.015774 -0.398415 -0.042312
				CHANNELS 3 Zrotation Yrotation Xrotation
				JOINT RightToe
				{
					OFFSET -0.025372 -0.048144 0.123348
					CHANNELS 3 Zrotation Yrotation Xrotation
					End Site
					{
						OFFSET 0.000000 0.000000 0.000000
					}
				}
			}
		}
	}
	JOINT Spine
	{
		OFFSET -0.002533 0.108963 -0.026696
		CHANNELS 3 Zrotation Yrotation Xrotation
		JOINT Spine1
		{
			OFFSET 0.005487 0.135180 0.001092
			CHANNELS 3 Zrotation Yrotation Xrotation
			JOINT Spine2
			{
				OFFSET 0.001457 0.052922 0.025425
				CHANNELS 3 Zrotation Yrotation Xrotation
				JOINT Neck
				{
					OFFSET -0.002778 0.213870 -0.042857
					CHANNELS 3 Zrotation Yrotation Xrotation
					JOINT Head
					{
						OFFSET 0.005152 0.064970 0.051349
						CHANNELS 3 Zrotation Yrotation Xrotation
						End Site
						{
							OFFSET 0.000000 0.000000 0.000000
						}
					}
				}
				JOINT LeftShoulder
				{
					OFFSET 0.078845 0.121749 -0.034090
					CHANNELS 3 Zrotation Yrotation Xrotation
					JOINT LeftArm
					{
						OFFSET 0.090977 0.030469 -0.008868
						CHANNELS 3 Zrotation Yrotation Xrotation
						JOINT LeftForeArm
						{
							OFFSET 0.259612 -0.012772 -0.027456
							CHANNELS 3 Zrotation Yrotation Xrotation
							JOINT LeftHand
							{
								OFFSET 0.249234 0.008986 -0.001171
								CHANNELS 3 Zrotation Yrotation Xrotation
								End Site
								{
									OFFSET 0.000000 0.000000 0.000000
								}
							}
						}
					}
				}
				JOINT RightShoulder
				{
					OFFSET -0.081759 0.118833 -0.038615
					CHANNELS 3 Zrotation Yrotation Xrotation
					JOINT RightArm
					{
						OFFSET -0.096012 0.032551 -0.009143
						CHANNELS 3 Zrotation Yrotation Xrotation
						JOINT RightForeArm
						{
							OFFSET -0.253742 -0.013329 -0.021401
							CHANNELS 3 Zrotation Yrotation Xrotation
							JOINT RightHand
							{
								OFFSET -0.255298 0.007772 -0.005559
								CHANNELS 3 Zrotation Yrotation Xrotation
								End Site
								{
									OFFSET 0.000000 0.000000 0.000000
								}
							}
						}
					}
				}
			}
		}
	}
}
MOTION
Frames: 7
Frame Time: 0.050000
0.016181 0.928013 -0.031920 -4.961903 -2.028488 7.796458 16.657712 1.097231 -23.552232 -9.400486 2.042065 17.191317 11.041638 21.778717 14.657267 0.000000 0.000000 0.000000 -7.855067 0.851254 -14.052858 11.179622 -1.950235 14.946114 -7.871636 -19.886205 18.992948 0.000000 0.000000 0.000000 -16.329900 3.265994 25.138372 4.611058 -0.470683 -23.930514 -1.298561 10.251253 25.178976 -2.457802 4.577147 -32.917806 0.000000 0.000000 0.000000 -28.574320 -5.521475 -2.281973 -51.882421 -32.142267 6.730513 -20.909007 -77.515484 19.892804 0.000000 0.000000 0.000000 6.720764 9.376376 4.600968 56.582915 2.850138 -5.438159 -41.211760 68.412136 -20.515653 0.000000 0.000000 0.000000 
0.022211 0.924816 -0.031738 -4.689657 -2.384143 6.978136 16.408116 1.091046 -23.362542 -10.170624 2.364638 18.511431 11.312284 22.185753 13.676992 0.000000 0.000000 0.000000 -9.603237 0.734180 -15.018258 12.787838 -2.530675 18.132290 -7.488821 -19.323288 18.986062 0.000000 0.000000 0.000000 -14.709839 2.824619 25.047966 5.197141 -0.654526 -23.466197 -0.744128 10.875849 24.858703 -2.269651 4.576312 -32.229065 0.000000 0.000000 0.000000 -29.604495 -6.786798 -1.748204 -50.514476 -32.193994 6.615435 -32.526555 -79.557628 30.330328 0.000000 0.000000 0.000000 7.729353 9.500785 4.853972 51.407969 4.476800 -4.673341 -60.241481 65.072871 -31.612341 0.000000 0.000000 0.000000 
0.029546 0.921711 -0.031659 -3.807424 -3.084954 6.422004 15.533095 1.012771 -23.523012 -10.461581 2.605057 19.917445 10.819943 21.413828 13.355232 0.000000 0.000000 0.000000 -11.730909 0.571689 -15.690692 13.879551 -2.977900 20.868547 -6.848517 -18.284929 16.797675 0.000000 0.000000 0.000000 -12.508980 2.248751 24.559489 5.649677 -0.771064 -23.573120 -0.170134 11.401789 24.911818 -1.209921 4.037108 -29.583751 0.000000 0.000000 0.000000 -29.817669 -8.429284 -0.648283 -48.726558 -33.184456 6.680979 -52.199825 -81.988473 49.369368 0.000000 0.000000 0.000000 8.146275 9.895729 5.104292 46.449808 7.199767 -3.622131 -71.714038 58.638606 -34.733125 0.000000 0.000000 0.000000 
0.038553 0.918493 -0.031850 -2.596935 -4.074939 5.276819 14.145508 0.829451 -23.102971 -10.383289 2.800769 21.680513 9.773617 19.775702 12.463338 0.000000 0.000000 0.000000 -14.252495 0.355652 -16.462843 14.556412 -3.325644 23.924118 -6.181083 -17.293009 16.788534 0.000000 0.000000 0.000000 -10.081568 1.659850 24.392996 7.053290 -1.121156 -23.714785 0.778949 10.933751 25.016499 -2.511519 4.565862 -28.183567 0.000000 0.000000 0.000000 -29.473704 -7.854087 -0.373712 -45.291736 -36.489870 7.037607 -112.685137 -83.078893 110.357199 0.000000 0.000000 0.000000 8.756091 10.825067 5.469821 40.802061 10.381984 -2.643764 -79.127054 53.076759 -35.623981 0.000000 0.000000 0.000000 
0.049931 0.914957 -0.031759 -0.307441 -5.480350 4.392656 11.839069 0.471920 -22.601473 -10.787472 3.143053 22.556153 8.727934 18.039742 12.001396 0.000000 0.000000 0.000000 -17.633742 0.115045 -16.484134 14.342590 -3.227544 25.515750 -5.099894 -15.347540 14.251377 0.000000 0.000000 0.000000 -6.435399 0.810259 23.640593 8.882169 -1.593270 -23.568359 1.885224 11.523875 24.265508 -3.309402 4.904431 -23.680437 0.000000 0.000000 0.000000 -28.854765 -7.531809 -0.343166 -39.994567 -38.531910 6.502548 -178.125802 -79.207788 -177.546095 0.000000 0.000000 0.000000 8.558939 12.247627 6.000968 35.404543 11.934629 -2.138432 -80.356990 48.980311 -33.503551 0.000000 0.000000 0.000000 
0.063218 0.911265 -0.030573 2.275782 -6.306702 2.642860 9.371731 0.037790 -21.671797 -10.676835 3.387640 24.470311 5.402878 12.572034 10.629421 0.000000 0.000000 0.000000 -21.153600 -0.110391 -15.590177 13.711940 -3.000534 26.732845 -4.524077 -14.239499 13.096906 0.000000 0.000000 0.000000 -2.327027 -0.093888 24.743391 11.004229 -2.059510 -24.136793 3.723159 11.306061 23.526611 -6.010394 6.428589 -22.244244 0.000000 0.000000 0.000000 -28.349414 -5.858292 -1.023829 -34.832914 -40.325037 5.731957 151.153753 -73.625964 -137.201512 0.000000 0.000000 0.000000 8.637585 13.164218 6.274344 28.914568 13.667726 -1.681815 -75.883823 44.534822 -28.323487 0.000000 0.000000 0.000000 
0.077264 0.906285 -0.027412 5.527738 -7.201560 0.906134 6.210982 -0.501298 -19.156280 -10.932398 3.510466 23.553188 2.524665 7.256784 8.361448 0.000000 0.000000 0.000000 -26.268469 -0.295090 -14.491610 13.972893 -3.027183 27.550241 -3.338017 -11.809357 11.365740 0.000000 0.000000 0.000000 2.776739 -1.191927 24.964885 11.699468 -2.251409 -24.285514 5.955443 10.905073 23.025318 -8.318051 7.821664 -18.171575 0.000000 0.000000 0.000000 -27.853547 -5.013282 -1.083237 -29.808114 -38.612070 4.017559 139.264859 -65.702526 -115.325440 0.000000 0.000000 0.000000 5.704620 13.137580 5.568574 23.426239 13.073298 -1.521576 -69.311828 41.325790 -23.781887 0.000000 0.000000 0.000000 
